<svg fill="currentColor" height="200px" width="200px" version="1.1" id="Layer_1" xmlns="http://www.w3.org/2000/svg" xmlns:xlink="http://www.w3.org/1999/xlink" viewBox="0 0 512 512" xml:space="preserve"><g id="SVGRepo_bgCarrier" stroke-width="0"></g><g id="SVGRepo_tracerCarrier" stroke-linecap="round" stroke-linejoin="round"></g><g id="SVGRepo_iconCarrier"> <g> <g> <path d="M256,350.349l-0.001-0.001L256,350.349z"></path> </g> </g> <g> <g> <path d="M256,350.349l0.001-0.001L256,350.349z"></path> </g> </g> <g> <g> <path d="M256,94.349c0,0-67.301,57.307-67.301,128s67.301,128,67.301,128s67.301-57.307,67.301-128S256,94.349,256,94.349z"></path> </g> </g> <g> <g> <path d="M195.334,332.483c-11.322-15.587-20.403-31.598-26.991-47.59c-8.648-20.99-13.034-42.033-13.034-62.543 c0-13.635,1.95-27.504,5.789-41.438c-43.015-15.027-86.116-11.581-86.116-11.581s-7.067,88.111,42.921,138.099 c25.49,25.49,60.889,36.139,89.466,40.461C203.482,343.253,199.414,338.101,195.334,332.483z"></path> </g> </g> <g> <g> <path d="M178.096,376.052c-34.412-8.672-62.609-23.815-83.806-45.013c-9.641-9.641-18.07-20.827-25.207-33.395 C28.041,317.434,0,350.349,0,350.349s57.307,67.301,128,67.301c36.05,0,68.614-17.501,91.877-34.656 C207.406,381.904,193.082,379.828,178.096,376.052z"></path> </g> </g> <g> <g> <path d="M437.019,169.331c0,0-43.102-3.446-86.116,11.581c3.839,13.933,5.789,27.803,5.789,41.438 c0,20.51-4.385,41.553-13.034,62.543c-6.588,15.992-15.669,32.003-26.991,47.59c-4.08,5.619-8.149,10.77-12.035,15.408 c28.577-4.322,63.977-14.972,89.466-40.461C444.085,257.441,437.019,169.331,437.019,169.331z"></path> </g> </g> <g> <g> <path d="M442.917,297.645c-7.137,12.567-15.566,23.753-25.207,33.395c-21.197,21.198-49.394,36.341-83.806,45.013 c-14.986,3.777-29.31,5.852-41.781,6.943c23.264,17.154,55.827,34.656,91.877,34.656c70.693,0,128-67.301,128-67.301 S483.959,317.434,442.917,297.645z"></path> </g> </g> </g></svg>